STARTFONT 2.1
FONT -Adobe-ITC Avant Garde Gothic-Demi-R-Normal--17-120-100-100-P-93-ISO8859-15
SIZE 12 100 100
FONTBOUNDINGBOX 18 21 -1 -4

STARTPROPERTIES 30
FOUNDRY "Adobe"
FAMILY_NAME "ITC Avant Garde Gothic"
WEIGHT_NAME "Demi"
SLANT "R"
SETWIDTH_NAME "Normal"
ADD_STYLE_NAME ""
PIXEL_SIZE 17
POINT_SIZE 120
RESOLUTION_X 100
RESOLUTION_Y 100
SPACING "P"
AVERAGE_WIDTH 93
CHARSET_REGISTRY "ISO8859"
CHARSET_ENCODING "15"
CAP_HEIGHT 13
X_HEIGHT 10
FACE_NAME "ITC Avant Garde Gothic Demi"
COPYRIGHT "Copyright (c) 1984, 1987 Adobe Systems Incorporated. All Rights Reserved. Copyright (c) 1988, 1991 Digital Equipment Corporation. All Rights Reserved."
NOTICE "ITC Avant Garde Gothic is a registered trademark of International Typeface Corporation."
_DEC_DEVICE_FONTNAMES "PS=AvantGarde-Demi"
_DEC_PRODUCTINFO "DECwindows Fonts V2.2, 07-Nov-1991"
RELATIVE_SETWIDTH 50
RELATIVE_WEIGHT 60
CHARSET_COLLECTIONS "ASCII ISO8859-1 ADOBE-STANDARD"
FULL_NAME "ITC Avant Garde Gothic Demi"
WEIGHT 10
QUAD_WIDTH 11
DEFAULT_CHAR 32
FONT_DESCENT 3
FONT_ASCENT 15
ENDPROPERTIES

CHARS 191

STARTCHAR space
ENCODING 32
SWIDTH 280 0
DWIDTH 4 0
BBX 1 1 0 0
BITMAP
00
ENDCHAR

STARTCHAR exclam
ENCODING 33
SWIDTH 280 0
DWIDTH 5 0
BBX 2 13 1 0
BITMAP
C0
C0
C0
C0
C0
C0
C0
C0
C0
C0
00
C0
C0
ENDCHAR

STARTCHAR quotedbl
ENCODING 34
SWIDTH 360 0
DWIDTH 6 0
BBX 3 4 1 9
BITMAP
A0
A0
A0
A0
ENDCHAR

STARTCHAR numbersign
ENCODING 35
SWIDTH 600 0
DWIDTH 9 0
BBX 8 13 0 0
BITMAP
12
12
12
12
7F
7F
24
FE
FE
48
48
48
48
ENDCHAR

STARTCHAR dollar
ENCODING 36
SWIDTH 560 0
DWIDTH 9 0
BBX 6 15 1 -2
BITMAP
30
30
78
FC
CC
C0
E0
78
1C
0C
CC
FC
78
30
30
ENDCHAR

STARTCHAR percent
ENCODING 37
SWIDTH 860 0
DWIDTH 14 0
BBX 13 13 0 0
BITMAP
30C0
7880
CD80
CD00
7900
3300
0200
0660
04F0
0598
0D98
08F0
1860
ENDCHAR

STARTCHAR ampersand
ENCODING 38
SWIDTH 680 0
DWIDTH 11 0
BBX 10 13 1 0
BITMAP
1800
3C00
6600
6600
7C00
39C0
7D80
ED80
C700
C700
EF80
7DC0
3880
ENDCHAR

STARTCHAR quoteright
ENCODING 39
SWIDTH 280 0
DWIDTH 5 0
BBX 2 4 1 9
BITMAP
C0
C0
40
80
ENDCHAR

STARTCHAR parenleft
ENCODING 40
SWIDTH 380 0
DWIDTH 6 0
BBX 5 15 1 -2
BITMAP
18
38
70
60
E0
C0
C0
C0
C0
C0
E0
60
70
38
18
ENDCHAR

STARTCHAR parenright
ENCODING 41
SWIDTH 380 0
DWIDTH 6 0
BBX 5 15 0 -2
BITMAP
C0
E0
70
30
38
18
18
18
18
18
38
30
70
E0
C0
ENDCHAR

STARTCHAR asterisk
ENCODING 42
SWIDTH 440 0
DWIDTH 7 0
BBX 5 5 1 8
BITMAP
50
70
F8
70
50
ENDCHAR

STARTCHAR plus
ENCODING 43
SWIDTH 600 0
DWIDTH 10 0
BBX 8 8 1 1
BITMAP
18
18
18
FF
FF
18
18
18
ENDCHAR

STARTCHAR comma
ENCODING 44
SWIDTH 280 0
DWIDTH 5 0
BBX 2 4 1 -2
BITMAP
C0
C0
40
80
ENDCHAR

STARTCHAR minus
ENCODING 45
SWIDTH 600 0
DWIDTH 10 0
BBX 8 2 1 4
BITMAP
FF
FF
ENDCHAR

STARTCHAR period
ENCODING 46
SWIDTH 280 0
DWIDTH 4 0
BBX 2 2 1 0
BITMAP
C0
C0
ENDCHAR

STARTCHAR slash
ENCODING 47
SWIDTH 460 0
DWIDTH 8 0
BBX 6 15 1 -2
BITMAP
0C
08
08
18
10
10
10
30
20
20
20
60
40
40
C0
ENDCHAR

STARTCHAR zero
ENCODING 48
SWIDTH 560 0
DWIDTH 9 0
BBX 8 13 1 0
BITMAP
3C
7E
E7
C3
C3
C3
C3
C3
C3
C3
E7
7E
3C
ENDCHAR

STARTCHAR one
ENCODING 49
SWIDTH 560 0
DWIDTH 9 0
BBX 3 13 3 0
BITMAP
E0
E0
60
60
60
60
60
60
60
60
60
60
60
ENDCHAR

STARTCHAR two
ENCODING 50
SWIDTH 560 0
DWIDTH 9 0
BBX 7 13 1 0
BITMAP
38
7C
EE
C6
06
06
0C
1C
38
70
E0
FE
FE
ENDCHAR

STARTCHAR three
ENCODING 51
SWIDTH 560 0
DWIDTH 9 0
BBX 8 13 1 0
BITMAP
3C
7E
E6
C6
0E
1C
1E
07
03
C3
E7
7E
3C
ENDCHAR

STARTCHAR four
ENCODING 52
SWIDTH 560 0
DWIDTH 9 0
BBX 8 13 0 0
BITMAP
06
06
0E
0E
1E
36
36
66
66
FF
FF
06
06
ENDCHAR

STARTCHAR five
ENCODING 53
SWIDTH 560 0
DWIDTH 9 0
BBX 8 13 0 0
BITMAP
3F
3F
30
30
60
7C
7E
67
03
C3
E7
7E
3C
ENDCHAR

STARTCHAR six
ENCODING 54
SWIDTH 560 0
DWIDTH 9 0
BBX 8 13 1 0
BITMAP
0E
1C
38
70
60
FC
FE
E7
C3
C3
E7
7E
3C
ENDCHAR

STARTCHAR seven
ENCODING 55
SWIDTH 560 0
DWIDTH 9 0
BBX 7 13 1 0
BITMAP
FE
FE
06
0C
0C
18
18
18
30
30
60
60
E0
ENDCHAR

STARTCHAR eight
ENCODING 56
SWIDTH 560 0
DWIDTH 9 0
BBX 8 13 1 0
BITMAP
3C
7E
E7
C3
E7
7E
7E
E7
C3
C3
E7
7E
3C
ENDCHAR

STARTCHAR nine
ENCODING 57
SWIDTH 560 0
DWIDTH 9 0
BBX 8 13 0 0
BITMAP
3C
7E
E7
C3
C3
E7
7F
3F
06
0E
1C
38
70
ENDCHAR

STARTCHAR colon
ENCODING 58
SWIDTH 280 0
DWIDTH 5 0
BBX 2 8 1 0
BITMAP
C0
C0
00
00
00
00
C0
C0
ENDCHAR

STARTCHAR semicolon
ENCODING 59
SWIDTH 280 0
DWIDTH 5 0
BBX 2 10 1 -2
BITMAP
C0
C0
00
00
00
00
C0
C0
40
80
ENDCHAR

STARTCHAR less
ENCODING 60
SWIDTH 600 0
DWIDTH 10 0
BBX 8 9 1 1
BITMAP
01
07
1E
78
E0
78
1E
07
01
ENDCHAR

STARTCHAR equal
ENCODING 61
SWIDTH 600 0
DWIDTH 10 0
BBX 8 5 1 3
BITMAP
FF
FF
00
FF
FF
ENDCHAR

STARTCHAR greater
ENCODING 62
SWIDTH 600 0
DWIDTH 10 0
BBX 8 9 1 1
BITMAP
80
E0
78
1E
07
1E
78
E0
80
ENDCHAR

STARTCHAR question
ENCODING 63
SWIDTH 560 0
DWIDTH 9 0
BBX 7 13 1 0
BITMAP
38
7C
EE
C6
06
0E
1C
38
30
30
00
30
30
ENDCHAR

STARTCHAR at
ENCODING 64
SWIDTH 740 0
DWIDTH 12 0
BBX 12 13 0 0
BITMAP
0F00
39C0
6020
47B0
CF90
9990
9990
9990
DFA0
4EC0
6000
38C0
0F00
ENDCHAR

STARTCHAR A
ENCODING 65
SWIDTH 740 0
DWIDTH 12 0
BBX 11 13 0 0
BITMAP
0400
0E00
0E00
1B00
1B00
3B80
3180
3180
7FC0
7FC0
E0E0
C060
C060
ENDCHAR

STARTCHAR B
ENCODING 66
SWIDTH 580 0
DWIDTH 10 0
BBX 8 13 1 0
BITMAP
F8
FC
CE
C6
CE
FC
FE
C7
C3
C3
C7
FE
FC
ENDCHAR

STARTCHAR C
ENCODING 67
SWIDTH 780 0
DWIDTH 13 0
BBX 11 13 1 0
BITMAP
0F00
3FC0
70E0
6060
C000
C000
C000
C000
C000
6060
70E0
3FC0
0F00
ENDCHAR

STARTCHAR D
ENCODING 68
SWIDTH 700 0
DWIDTH 12 0
BBX 10 13 1 0
BITMAP
FC00
FF00
C380
C180
C0C0
C0C0
C0C0
C0C0
C0C0
C180
C380
FF00
FC00
ENDCHAR

STARTCHAR E
ENCODING 69
SWIDTH 520 0
DWIDTH 9 0
BBX 6 13 1 0
BITMAP
FC
FC
C0
C0
C0
FC
FC
C0
C0
C0
C0
FC
FC
ENDCHAR

STARTCHAR F
ENCODING 70
SWIDTH 480 0
DWIDTH 8 0
BBX 6 13 1 0
BITMAP
FC
FC
C0
C0
C0
FC
FC
C0
C0
C0
C0
C0
C0
ENDCHAR

STARTCHAR G
ENCODING 71
SWIDTH 840 0
DWIDTH 14 0
BBX 12 13 1 0
BITMAP
0F00
3FC0
70E0
6060
C000
C000
C7F0
C7F0
C030
6060
70E0
3FC0
0F00
ENDCHAR

STARTCHAR H
ENCODING 72
SWIDTH 680 0
DWIDTH 11 0
BBX 9 13 1 0
BITMAP
C180
C180
C180
C180
C180
FF80
FF80
C180
C180
C180
C180
C180
C180
ENDCHAR

STARTCHAR I
ENCODING 73
SWIDTH 280 0
DWIDTH 5 0
BBX 2 13 1 0
BITMAP
C0
C0
C0
C0
C0
C0
C0
C0
C0
C0
C0
C0
C0
ENDCHAR

STARTCHAR J
ENCODING 74
SWIDTH 480 0
DWIDTH 8 0
BBX 6 13 0 0
BITMAP
0C
0C
0C
0C
0C
0C
0C
0C
0C
0C
CC
FC
78
ENDCHAR

STARTCHAR K
ENCODING 75
SWIDTH 620 0
DWIDTH 10 0
BBX 10 13 1 0
BITMAP
C380
C700
C600
CC00
D800
F800
F000
F800
DC00
CE00
C700
C380
C1C0
ENDCHAR

STARTCHAR L
ENCODING 76
SWIDTH 440 0
DWIDTH 7 0
BBX 6 13 1 0
BITMAP
C0
C0
C0
C0
C0
C0
C0
C0
C0
C0
C0
FC
FC
ENDCHAR

STARTCHAR M
ENCODING 77
SWIDTH 900 0
DWIDTH 15 0
BBX 12 13 1 0
BITMAP
E070
E070
F0F0
F0F0
F0F0
D9B0
D9B0
D9B0
C930
CF30
CF30
C630
C630
ENDCHAR

STARTCHAR N
ENCODING 78
SWIDTH 740 0
DWIDTH 12 0
BBX 9 13 1 0
BITMAP
C180
E180
E180
F180
F180
D980
C980
CD80
C780
C780
C380
C380
C180
ENDCHAR

STARTCHAR O
ENCODING 79
SWIDTH 840 0
DWIDTH 14 0
BBX 13 13 1 0
BITMAP
0F80
3FE0
7070
6030
C018
C018
C018
C018
C018
6030
7070
3FE0
0F80
ENDCHAR

STARTCHAR P
ENCODING 80
SWIDTH 560 0
DWIDTH 9 0
BBX 7 13 2 0
BITMAP
F8
FC
CE
C6
C6
CE
FC
F8
C0
C0
C0
C0
C0
ENDCHAR

STARTCHAR Q
ENCODING 81
SWIDTH 840 0
DWIDTH 14 0
BBX 13 13 0 0
BITMAP
0F80
3FE0
7070
6030
C018
C018
C018
FC18
FF18
63B0
71F0
3FF8
0F38
ENDCHAR

STARTCHAR R
ENCODING 82
SWIDTH 580 0
DWIDTH 9 0
BBX 8 13 1 0
BITMAP
F8
FC
CE
C6
C6
CE
FC
F8
DC
CC
CE
C6
C7
ENDCHAR

STARTCHAR S
ENCODING 83
SWIDTH 520 0
DWIDTH 9 0
BBX 7 13 1 0
BITMAP
38
7C
C6
C6
C0
F0
7C
1E
06
C6
C6
7C
38
ENDCHAR

STARTCHAR T
ENCODING 84
SWIDTH 420 0
DWIDTH 7 0
BBX 6 13 0 0
BITMAP
FC
FC
30
30
30
30
30
30
30
30
30
30
30
ENDCHAR

STARTCHAR U
ENCODING 85
SWIDTH 640 0
DWIDTH 10 0
BBX 8 13 1 0
BITMAP
C3
C3
C3
C3
C3
C3
C3
C3
C3
C3
E7
7E
3C
ENDCHAR

STARTCHAR V
ENCODING 86
SWIDTH 700 0
DWIDTH 11 0
BBX 10 13 0 0
BITMAP
C0C0
C0C0
C0C0
6180
6180
3300
3300
3300
1E00
1E00
1E00
0C00
0C00
ENDCHAR

STARTCHAR W
ENCODING 87
SWIDTH 900 0
DWIDTH 15 0
BBX 14 13 0 0
BITMAP
C30C
C30C
C30C
6798
6798
6798
6CD8
3CF0
3CF0
3CF0
1860
1860
1860
ENDCHAR

STARTCHAR X
ENCODING 88
SWIDTH 680 0
DWIDTH 11 0
BBX 10 13 0 0
BITMAP
C0C0
E1C0
6180
3300
3F00
1E00
0C00
1E00
3F00
3300
6180
E1C0
C0C0
ENDCHAR

STARTCHAR Y
ENCODING 89
SWIDTH 620 0
DWIDTH 10 0
BBX 10 13 0 0
BITMAP
E1C0
6180
6180
3300
3300
1E00
1E00
0C00
0C00
0C00
0C00
0C00
0C00
ENDCHAR

STARTCHAR Z
ENCODING 90
SWIDTH 500 0
DWIDTH 8 0
BBX 8 13 0 0
BITMAP
FF
FF
06
06
0C
1C
18
38
30
60
60
FF
FF
ENDCHAR

STARTCHAR bracketleft
ENCODING 91
SWIDTH 320 0
DWIDTH 6 0
BBX 4 15 1 -2
BITMAP
30
70
60
C0
C0
C0
C0
C0
C0
C0
C0
C0
60
70
30
ENDCHAR

STARTCHAR backslash
ENCODING 92
SWIDTH 640 0
DWIDTH 11 0
BBX 7 13 1 0
BITMAP
C0
40
60
20
20
30
10
18
08
08
0C
04
06
ENDCHAR

STARTCHAR bracketright
ENCODING 93
SWIDTH 320 0
DWIDTH 5 0
BBX 4 15 0 -2
BITMAP
C0
E0
60
30
30
30
30
30
30
30
30
30
60
E0
C0
ENDCHAR

STARTCHAR asciicircum
ENCODING 94
SWIDTH 600 0
DWIDTH 10 0
BBX 8 7 1 6
BITMAP
18
18
3C
3C
66
E7
C3
ENDCHAR

STARTCHAR underscore
ENCODING 95
SWIDTH 500 0
DWIDTH 8 0
BBX 8 1 0 -2
BITMAP
FF
ENDCHAR

STARTCHAR quoteleft
ENCODING 96
SWIDTH 280 0
DWIDTH 5 0
BBX 2 4 2 9
BITMAP
40
80
C0
C0
ENDCHAR

STARTCHAR a
ENCODING 97
SWIDTH 660 0
DWIDTH 11 0
BBX 10 10 0 0
BITMAP
1EC0
7FC0
61C0
C0C0
C0C0
C0C0
C0C0
61C0
7FC0
1EC0
ENDCHAR

STARTCHAR b
ENCODING 98
SWIDTH 660 0
DWIDTH 11 0
BBX 9 13 1 0
BITMAP
C000
C000
C000
DC00
FF00
E300
C180
C180
C180
C180
E300
FF00
DC00
ENDCHAR

STARTCHAR c
ENCODING 99
SWIDTH 640 0
DWIDTH 11 0
BBX 10 10 0 0
BITMAP
1E00
7F80
61C0
C0C0
C000
C000
C0C0
61C0
7F80
1E00
ENDCHAR

STARTCHAR d
ENCODING 100
SWIDTH 660 0
DWIDTH 11 0
BBX 10 13 0 0
BITMAP
00C0
00C0
00C0
1EC0
7FC0
61C0
C0C0
C0C0
C0C0
C0C0
61C0
7FC0
1EC0
ENDCHAR

STARTCHAR e
ENCODING 101
SWIDTH 640 0
DWIDTH 10 0
BBX 9 10 0 0
BITMAP
1C00
7F00
6300
C180
FF80
FF80
C000
6380
7F00
1C00
ENDCHAR

STARTCHAR f
ENCODING 102
SWIDTH 280 0
DWIDTH 5 0
BBX 5 13 0 0
BITMAP
38
78
60
F0
F0
60
60
60
60
60
60
60
60
ENDCHAR

STARTCHAR g
ENCODING 103
SWIDTH 660 0
DWIDTH 11 0
BBX 10 14 0 -4
BITMAP
1EC0
7FC0
61C0
C0C0
C0C0
C0C0
C0C0
61C0
7FC0
1EC0
00C0
7180
3F80
1E00
ENDCHAR

STARTCHAR h
ENCODING 104
SWIDTH 600 0
DWIDTH 10 0
BBX 8 13 1 0
BITMAP
C0
C0
C0
DC
FE
E7
C3
C3
C3
C3
C3
C3
C3
ENDCHAR

STARTCHAR i
ENCODING 105
SWIDTH 240 0
DWIDTH 4 0
BBX 2 13 1 0
BITMAP
C0
C0
00
C0
C0
C0
C0
C0
C0
C0
C0
C0
C0
ENDCHAR

STARTCHAR j
ENCODING 106
SWIDTH 260 0
DWIDTH 4 0
BBX 4 16 -1 -3
BITMAP
30
30
00
30
30
30
30
30
30
30
30
30
30
30
F0
E0
ENDCHAR

STARTCHAR k
ENCODING 107
SWIDTH 580 0
DWIDTH 10 0
BBX 9 13 1 0
BITMAP
C000
C000
C000
C700
CE00
CC00
D800
F000
F800
DC00
CE00
C700
C380
ENDCHAR

STARTCHAR l
ENCODING 108
SWIDTH 240 0
DWIDTH 4 0
BBX 2 13 1 0
BITMAP
C0
C0
C0
C0
C0
C0
C0
C0
C0
C0
C0
C0
C0
ENDCHAR

STARTCHAR m
ENCODING 109
SWIDTH 940 0
DWIDTH 16 0
BBX 14 10 1 0
BITMAP
DC70
FEF8
E79C
C30C
C30C
C30C
C30C
C30C
C30C
C30C
ENDCHAR

STARTCHAR n
ENCODING 110
SWIDTH 600 0
DWIDTH 10 0
BBX 8 10 1 0
BITMAP
DC
FE
E7
C3
C3
C3
C3
C3
C3
C3
ENDCHAR

STARTCHAR o
ENCODING 111
SWIDTH 640 0
DWIDTH 11 0
BBX 10 10 0 0
BITMAP
1E00
7F80
6180
C0C0
C0C0
C0C0
C0C0
6180
7F80
1E00
ENDCHAR

STARTCHAR p
ENCODING 112
SWIDTH 660 0
DWIDTH 11 0
BBX 9 13 1 -3
BITMAP
DC00
FF00
E300
C180
C180
C180
C180
E300
FF00
DC00
C000
C000
C000
ENDCHAR

STARTCHAR q
ENCODING 113
SWIDTH 660 0
DWIDTH 11 0
BBX 10 13 0 -3
BITMAP
1EC0
7FC0
61C0
C0C0
C0C0
C0C0
C0C0
61C0
7FC0
1EC0
00C0
00C0
00C0
ENDCHAR

STARTCHAR r
ENCODING 114
SWIDTH 320 0
DWIDTH 5 0
BBX 5 10 0 0
BITMAP
D8
F8
E0
C0
C0
C0
C0
C0
C0
C0
ENDCHAR

STARTCHAR s
ENCODING 115
SWIDTH 440 0
DWIDTH 7 0
BBX 6 10 0 0
BITMAP
38
7C
CC
C0
70
38
0C
CC
F8
70
ENDCHAR

STARTCHAR t
ENCODING 116
SWIDTH 300 0
DWIDTH 5 0
BBX 4 13 0 0
BITMAP
60
60
60
F0
F0
60
60
60
60
60
60
60
60
ENDCHAR

STARTCHAR u
ENCODING 117
SWIDTH 600 0
DWIDTH 10 0
BBX 8 10 1 0
BITMAP
C3
C3
C3
C3
C3
C3
C3
E7
7F
3B
ENDCHAR

STARTCHAR v
ENCODING 118
SWIDTH 560 0
DWIDTH 9 0
BBX 8 10 0 0
BITMAP
C3
C3
66
66
66
3C
3C
18
18
18
ENDCHAR

STARTCHAR w
ENCODING 119
SWIDTH 800 0
DWIDTH 13 0
BBX 12 10 0 0
BITMAP
C630
C630
6660
6660
6F60
2F40
39C0
39C0
1980
1980
ENDCHAR

STARTCHAR x
ENCODING 120
SWIDTH 560 0
DWIDTH 9 0
BBX 8 10 0 0
BITMAP
C3
E7
66
3C
18
3C
3C
66
E7
C3
ENDCHAR

STARTCHAR y
ENCODING 121
SWIDTH 580 0
DWIDTH 10 0
BBX 9 13 0 -3
BITMAP
C180
C180
6300
6300
3600
3600
1C00
1C00
1800
1800
1800
3000
3000
ENDCHAR

STARTCHAR z
ENCODING 122
SWIDTH 460 0
DWIDTH 8 0
BBX 6 10 1 0
BITMAP
FC
FC
0C
18
30
30
60
C0
FC
FC
ENDCHAR

STARTCHAR braceleft
ENCODING 123
SWIDTH 340 0
DWIDTH 6 0
BBX 4 15 1 -2
BITMAP
30
60
60
60
60
60
60
C0
60
60
60
60
60
60
30
ENDCHAR

STARTCHAR bar
ENCODING 124
SWIDTH 600 0
DWIDTH 10 0
BBX 2 13 4 0
BITMAP
C0
C0
C0
C0
C0
C0
C0
C0
C0
C0
C0
C0
C0
ENDCHAR

STARTCHAR braceright
ENCODING 125
SWIDTH 340 0
DWIDTH 6 0
BBX 4 15 1 -2
BITMAP
C0
60
60
60
60
60
60
30
60
60
60
60
60
60
C0
ENDCHAR

STARTCHAR asciitilde
ENCODING 126
SWIDTH 600 0
DWIDTH 10 0
BBX 8 3 1 4
BITMAP
72
FF
4E
ENDCHAR

STARTCHAR space
ENCODING 160
SWIDTH 280 0
DWIDTH 4 0
BBX 1 1 0 0
BITMAP
00
ENDCHAR

STARTCHAR exclamdown
ENCODING 161
SWIDTH 280 0
DWIDTH 5 0
BBX 2 13 1 -3
BITMAP
C0
C0
00
C0
C0
C0
C0
C0
C0
C0
C0
C0
C0
ENDCHAR

STARTCHAR cent
ENCODING 162
SWIDTH 560 0
DWIDTH 9 0
BBX 8 12 0 0
BITMAP
18
18
3C
7E
E7
C0
C0
E7
7E
3C
18
18
ENDCHAR

STARTCHAR sterling
ENCODING 163
SWIDTH 560 0
DWIDTH 9 0
BBX 9 13 0 0
BITMAP
1C00
3E00
7700
6300
6000
3000
FE00
FE00
1800
1980
3380
7F00
7E00
ENDCHAR

STARTCHAR EuroSign
ENCODING 164
SWIDTH 534 0
DWIDTH 9 0
BBX 8 12 0 0
BITMAP
0F
3F
31
60
FE
60
FC
60
60
31
3F
0F
ENDCHAR

STARTCHAR yen
ENCODING 165
SWIDTH 560 0
DWIDTH 9 0
BBX 10 13 -1 0
BITMAP
E1C0
6180
7380
3300
3300
7F80
1E00
0C00
7F80
0C00
0C00
0C00
0C00
ENDCHAR

STARTCHAR Scaron
ENCODING 166
SWIDTH 520 0
DWIDTH 9 0
BBX 7 14 1 0
BITMAP
38
38
7C
C6
C6
C0
F0
7C
1E
06
C6
C6
7C
38
ENDCHAR

STARTCHAR section
ENCODING 167
SWIDTH 560 0
DWIDTH 9 0
BBX 8 15 0 -2
BITMAP
3C
7E
E7
C3
F0
7C
CE
C3
73
3E
0F
C3
E7
7E
3C
ENDCHAR

STARTCHAR scaron
ENCODING 168
SWIDTH 440 0
DWIDTH 7 0
BBX 6 11 0 0
BITMAP
38
38
7C
CC
C0
70
38
0C
CC
F8
70
ENDCHAR

STARTCHAR copyright
ENCODING 169
SWIDTH 740 0
DWIDTH 12 0
BBX 12 13 0 0
BITMAP
0F00
39C0
6060
4F20
D9B0
9010
9010
9010
D9B0
4F20
6060
39C0
1F00
ENDCHAR

STARTCHAR ordfeminine
ENCODING 170
SWIDTH 360 0
DWIDTH 6 0
BBX 5 7 0 6
BITMAP
68
D8
88
D8
68
00
F8
ENDCHAR

STARTCHAR guillemotleft
ENCODING 171
SWIDTH 460 0
DWIDTH 8 0
BBX 6 6 1 2
BITMAP
24
6C
D8
D8
6C
24
ENDCHAR

STARTCHAR logicalnot
ENCODING 172
SWIDTH 600 0
DWIDTH 10 0
BBX 8 5 1 3
BITMAP
FF
FF
03
03
03
ENDCHAR

STARTCHAR hyphen
ENCODING 173
SWIDTH 420 0
DWIDTH 7 0
BBX 5 2 1 4
BITMAP
F8
F8
ENDCHAR

STARTCHAR registered
ENCODING 174
SWIDTH 740 0
DWIDTH 12 0
BBX 12 13 0 0
BITMAP
0F00
39C0
6060
5F20
D0B0
9090
9F10
9210
D130
51A0
6060
39C0
1F00
ENDCHAR

STARTCHAR macron
ENCODING 175
SWIDTH 420 0
DWIDTH 7 0
BBX 4 2 1 11
BITMAP
F0
F0
ENDCHAR

STARTCHAR degree
ENCODING 176
SWIDTH 400 0
DWIDTH 7 0
BBX 5 5 1 8
BITMAP
70
D8
88
D8
70
ENDCHAR

STARTCHAR plusminus
ENCODING 177
SWIDTH 600 0
DWIDTH 10 0
BBX 8 9 1 0
BITMAP
18
18
FF
FF
18
18
00
FF
FF
ENDCHAR

STARTCHAR twosuperior
ENCODING 178
SWIDTH 336 0
DWIDTH 6 0
BBX 5 7 0 6
BITMAP
70
F8
98
18
30
60
F8
ENDCHAR

STARTCHAR threesuperior
ENCODING 179
SWIDTH 336 0
DWIDTH 6 0
BBX 5 7 0 6
BITMAP
70
D8
18
30
18
D8
70
ENDCHAR

STARTCHAR Zcaron
ENCODING 180
SWIDTH 500 0
DWIDTH 8 0
BBX 8 14 0 0
BITMAP
1C
FF
FF
06
06
0C
1C
18
38
30
60
60
FF
FF
ENDCHAR

STARTCHAR mu
ENCODING 181
SWIDTH 576 0
DWIDTH 10 0
BBX 8 13 1 -3
BITMAP
C3
C3
C3
C3
C3
C3
C3
E7
FF
FB
C0
C0
C0
ENDCHAR

STARTCHAR paragraph
ENCODING 182
SWIDTH 600 0
DWIDTH 10 0
BBX 8 15 0 -2
BITMAP
7F
FF
FB
FB
FB
7B
1B
1B
1B
1B
1B
1B
1B
1B
1B
ENDCHAR

STARTCHAR periodcentered
ENCODING 183
SWIDTH 280 0
DWIDTH 5 0
BBX 2 2 2 4
BITMAP
C0
C0
ENDCHAR

STARTCHAR zcaron
ENCODING 184
SWIDTH 460 0
DWIDTH 8 0
BBX 6 11 1 0
BITMAP
38
FC
FC
0C
18
30
30
60
C0
FC
FC
ENDCHAR

STARTCHAR onesuperior
ENCODING 185
SWIDTH 336 0
DWIDTH 6 0
BBX 3 7 1 6
BITMAP
E0
60
60
60
60
60
60
ENDCHAR

STARTCHAR ordmasculine
ENCODING 186
SWIDTH 360 0
DWIDTH 6 0
BBX 5 7 0 6
BITMAP
70
D8
88
D8
70
00
F8
ENDCHAR

STARTCHAR guillemotright
ENCODING 187
SWIDTH 460 0
DWIDTH 8 0
BBX 6 6 1 2
BITMAP
90
D8
6C
6C
D8
90
ENDCHAR

STARTCHAR Ligature_OE
ENCODING 188
SWIDTH 1060 0
DWIDTH 18 0
BBX 17 13 0 0
BITMAP
0F9F80
3FFF80
707800
603800
C01800
C01F80
C01F80
C01800
C01800
603800
707800
3FFF80
0F9F80
ENDCHAR

STARTCHAR Ligature_oe
ENCODING 189
SWIDTH 1080 0
DWIDTH 18 0
BBX 17 10 0 0
BITMAP
1E1C00
7FFF00
61E300
C0C180
C0FF80
C0FF80
C0C000
61E380
7FFF00
1E1C00
ENDCHAR

STARTCHAR Ydiaeresis
ENCODING 190
SWIDTH 620 0
DWIDTH 10 0
BBX 10 14 0 0
BITMAP
1B00
E1C0
6180
6180
3300
3300
1E00
1E00
0C00
0C00
0C00
0C00
0C00
0C00
ENDCHAR

STARTCHAR questiondown
ENCODING 191
SWIDTH 560 0
DWIDTH 9 0
BBX 7 13 1 -3
BITMAP
18
18
00
18
18
38
70
E0
C0
C6
EE
7C
38
ENDCHAR

STARTCHAR Agrave
ENCODING 192
SWIDTH 740 0
DWIDTH 12 0
BBX 11 17 0 0
BITMAP
1000
1C00
0600
0000
0400
0E00
0E00
1B00
1B00
3B80
3180
3180
7FC0
7FC0
E0E0
C060
C060
ENDCHAR

STARTCHAR Aacute
ENCODING 193
SWIDTH 740 0
DWIDTH 12 0
BBX 11 17 0 0
BITMAP
0100
0700
0C00
0000
0400
0E00
0E00
1B00
1B00
3B80
3180
3180
7FC0
7FC0
E0E0
C060
C060
ENDCHAR

STARTCHAR Acircumflex
ENCODING 194
SWIDTH 740 0
DWIDTH 12 0
BBX 11 16 0 0
BITMAP
0E00
1B00
0000
0400
0E00
0E00
1B00
1B00
3B80
3180
3180
7FC0
7FC0
E0E0
C060
C060
ENDCHAR

STARTCHAR Atilde
ENCODING 195
SWIDTH 740 0
DWIDTH 12 0
BBX 11 16 0 0
BITMAP
0E80
1700
0000
0400
0E00
0E00
1B00
1B00
3B80
3180
3180
7FC0
7FC0
E0E0
C060
C060
ENDCHAR

STARTCHAR Adieresis
ENCODING 196
SWIDTH 740 0
DWIDTH 12 0
BBX 11 16 0 0
BITMAP
1B00
1B00
0000
0400
0E00
0E00
1B00
1B00
3B80
3180
3180
7FC0
7FC0
E0E0
C060
C060
ENDCHAR

STARTCHAR Aring
ENCODING 197
SWIDTH 740 0
DWIDTH 12 0
BBX 11 16 0 0
BITMAP
0E00
1B00
0E00
0400
0E00
0E00
1B00
1B00
3B80
3180
3180
7FC0
7FC0
E0E0
C060
C060
ENDCHAR

STARTCHAR AE
ENCODING 198
SWIDTH 900 0
DWIDTH 15 0
BBX 13 13 0 0
BITMAP
03F8
07F8
0780
0D80
0D80
19F8
19F8
3180
3F80
7F80
6180
E1F8
C1F8
ENDCHAR

STARTCHAR Ccedilla
ENCODING 199
SWIDTH 780 0
DWIDTH 13 0
BBX 11 16 1 -3
BITMAP
0F00
3FC0
70E0
6060
C000
C000
C000
C000
C000
6060
70E0
3FC0
1F00
1C00
0600
1C00
ENDCHAR

STARTCHAR Egrave
ENCODING 200
SWIDTH 520 0
DWIDTH 9 0
BBX 6 17 1 0
BITMAP
40
70
18
00
FC
FC
C0
C0
C0
FC
FC
C0
C0
C0
C0
FC
FC
ENDCHAR

STARTCHAR Eacute
ENCODING 201
SWIDTH 520 0
DWIDTH 9 0
BBX 6 17 1 0
BITMAP
04
1C
30
00
FC
FC
C0
C0
C0
FC
FC
C0
C0
C0
C0
FC
FC
ENDCHAR

STARTCHAR Ecircumflex
ENCODING 202
SWIDTH 520 0
DWIDTH 9 0
BBX 6 16 1 0
BITMAP
38
6C
00
FC
FC
C0
C0
C0
FC
FC
C0
C0
C0
C0
FC
FC
ENDCHAR

STARTCHAR Edieresis
ENCODING 203
SWIDTH 520 0
DWIDTH 9 0
BBX 6 16 1 0
BITMAP
6C
6C
00
FC
FC
C0
C0
C0
FC
FC
C0
C0
C0
C0
FC
FC
ENDCHAR

STARTCHAR Igrave
ENCODING 204
SWIDTH 280 0
DWIDTH 5 0
BBX 4 17 0 0
BITMAP
80
E0
30
00
60
60
60
60
60
60
60
60
60
60
60
60
60
ENDCHAR

STARTCHAR Iacute
ENCODING 205
SWIDTH 280 0
DWIDTH 5 0
BBX 4 17 1 0
BITMAP
10
70
C0
00
C0
C0
C0
C0
C0
C0
C0
C0
C0
C0
C0
C0
C0
ENDCHAR

STARTCHAR Icircumflex
ENCODING 206
SWIDTH 280 0
DWIDTH 5 0
BBX 5 16 1 0
BITMAP
70
D8
00
60
60
60
60
60
60
60
60
60
60
60
60
60
ENDCHAR

STARTCHAR Idieresis
ENCODING 207
SWIDTH 280 0
DWIDTH 5 0
BBX 5 16 1 0
BITMAP
D8
D8
00
60
60
60
60
60
60
60
60
60
60
60
60
60
ENDCHAR

STARTCHAR Eth
ENCODING 208
SWIDTH 742 0
DWIDTH 12 0
BBX 11 13 0 0
BITMAP
7E00
7F80
61C0
60C0
6060
F860
F860
6060
6060
60C0
61C0
7F80
7E00
ENDCHAR

STARTCHAR Ntilde
ENCODING 209
SWIDTH 740 0
DWIDTH 12 0
BBX 9 16 1 0
BITMAP
1D00
2E00
0000
C180
E180
E180
F180
F180
D980
D980
CD80
CD80
C780
C780
C380
C380
ENDCHAR

STARTCHAR Ograve
ENCODING 210
SWIDTH 840 0
DWIDTH 14 0
BBX 13 17 1 0
BITMAP
0800
0E00
0300
0000
0F80
3FE0
7070
6030
C018
C018
C018
C018
C018
6030
7070
3FE0
0F80
ENDCHAR

STARTCHAR Oacute
ENCODING 211
SWIDTH 840 0
DWIDTH 14 0
BBX 13 17 1 0
BITMAP
0080
0380
0600
0000
0F80
3FE0
7070
6030
C018
C018
C018
C018
C018
6030
7070
3FE0
0F80
ENDCHAR

STARTCHAR Ocircumflex
ENCODING 212
SWIDTH 840 0
DWIDTH 14 0
BBX 13 16 1 0
BITMAP
0700
0D80
0000
0F80
3FE0
7070
6030
C018
C018
C018
C018
C018
6030
7070
3FE0
0F80
ENDCHAR

STARTCHAR Otilde
ENCODING 213
SWIDTH 840 0
DWIDTH 14 0
BBX 13 16 1 0
BITMAP
0740
0B80
0000
0F80
3FE0
7070
6030
C018
C018
C018
C018
C018
6030
7070
3FE0
0F80
ENDCHAR

STARTCHAR Odieresis
ENCODING 214
SWIDTH 840 0
DWIDTH 14 0
BBX 13 16 1 0
BITMAP
0D80
0D80
0000
0F80
3FE0
7070
6030
C018
C018
C018
C018
C018
6030
7070
3FE0
0F80
ENDCHAR

STARTCHAR multiply
ENCODING 215
SWIDTH 600 0
DWIDTH 10 0
BBX 8 8 1 1
BITMAP
42
E7
7E
3C
3C
7E
E7
42
ENDCHAR

STARTCHAR Oslash
ENCODING 216
SWIDTH 840 0
DWIDTH 14 0
BBX 13 15 0 -1
BITMAP
0020
0FB0
3FE0
70F0
61B0
C198
C318
C718
C618
CC18
6C30
7870
3FE0
7F80
2000
ENDCHAR

STARTCHAR Ugrave
ENCODING 217
SWIDTH 640 0
DWIDTH 10 0
BBX 8 17 1 0
BITMAP
20
38
0C
00
C3
C3
C3
C3
C3
C3
C3
C3
C3
C3
E7
7E
3C
ENDCHAR

STARTCHAR Uacute
ENCODING 218
SWIDTH 640 0
DWIDTH 10 0
BBX 8 17 1 0
BITMAP
02
0E
18
00
C3
C3
C3
C3
C3
C3
C3
C3
C3
C3
E7
7E
3C
ENDCHAR

STARTCHAR Ucircumflex
ENCODING 219
SWIDTH 640 0
DWIDTH 10 0
BBX 8 16 1 0
BITMAP
38
6C
00
C3
C3
C3
C3
C3
C3
C3
C3
C3
C3
E7
7E
3C
ENDCHAR

STARTCHAR Udieresis
ENCODING 220
SWIDTH 640 0
DWIDTH 10 0
BBX 8 16 1 0
BITMAP
6C
6C
00
C3
C3
C3
C3
C3
C3
C3
C3
C3
C3
E7
7E
3C
ENDCHAR

STARTCHAR Yacute
ENCODING 221
SWIDTH 620 0
DWIDTH 10 0
BBX 10 17 0 0
BITMAP
0100
0700
0C00
0000
E1C0
6180
6180
3300
3300
1E00
1E00
0C00
0C00
0C00
0C00
0C00
0C00
ENDCHAR

STARTCHAR Thorn
ENCODING 222
SWIDTH 560 0
DWIDTH 9 0
BBX 7 13 1 0
BITMAP
C0
C0
F8
FC
CE
C6
C6
CE
FC
F8
C0
C0
C0
ENDCHAR

STARTCHAR germandbls
ENCODING 223
SWIDTH 600 0
DWIDTH 10 0
BBX 8 13 1 0
BITMAP
38
7C
EE
C6
CE
DC
DE
C7
C3
E3
E7
FE
DC
ENDCHAR

STARTCHAR agrave
ENCODING 224
SWIDTH 660 0
DWIDTH 11 0
BBX 10 14 0 0
BITMAP
3800
1C00
0600
0000
1EC0
7FC0
61C0
C0C0
C0C0
C0C0
C0C0
61C0
7FC0
1EC0
ENDCHAR

STARTCHAR aacute
ENCODING 225
SWIDTH 660 0
DWIDTH 11 0
BBX 10 14 0 0
BITMAP
0380
0700
0C00
0000
1EC0
7FC0
61C0
C0C0
C0C0
C0C0
C0C0
61C0
7FC0
1EC0
ENDCHAR

STARTCHAR acircumflex
ENCODING 226
SWIDTH 660 0
DWIDTH 11 0
BBX 10 14 0 0
BITMAP
0C00
1E00
3300
0000
1EC0
7FC0
61C0
C0C0
C0C0
C0C0
C0C0
61C0
7FC0
1EC0
ENDCHAR

STARTCHAR atilde
ENCODING 227
SWIDTH 660 0
DWIDTH 11 0
BBX 10 13 0 0
BITMAP
0E80
1700
0000
1EC0
7FC0
61C0
C0C0
C0C0
C0C0
C0C0
61C0
7FC0
1EC0
ENDCHAR

STARTCHAR adieresis
ENCODING 228
SWIDTH 660 0
DWIDTH 11 0
BBX 10 13 0 0
BITMAP
1B00
1B00
0000
1EC0
7FC0
61C0
C0C0
C0C0
C0C0
C0C0
61C0
7FC0
1EC0
ENDCHAR

STARTCHAR aring
ENCODING 229
SWIDTH 660 0
DWIDTH 11 0
BBX 10 15 0 0
BITMAP
0E00
1B00
1B00
0E00
0000
1EC0
7FC0
61C0
C0C0
C0C0
C0C0
C0C0
61C0
7FC0
1EC0
ENDCHAR

STARTCHAR ae
ENCODING 230
SWIDTH 1080 0
DWIDTH 18 0
BBX 17 10 0 0
BITMAP
1EDC00
7FFF00
61E300
C0C180
C0FF80
C0FF80
C0C000
61E380
7FFF00
1EDC00
ENDCHAR

STARTCHAR ccedilla
ENCODING 231
SWIDTH 640 0
DWIDTH 11 0
BBX 10 13 0 -3
BITMAP
1E00
7F80
61C0
C0C0
C000
C000
C0C0
61C0
7F80
1E00
1C00
0600
1C00
ENDCHAR

STARTCHAR egrave
ENCODING 232
SWIDTH 640 0
DWIDTH 10 0
BBX 9 14 0 0
BITMAP
7000
3800
0C00
0000
1C00
7F00
6300
C180
FF80
FF80
C000
6380
7F00
1C00
ENDCHAR

STARTCHAR eacute
ENCODING 233
SWIDTH 640 0
DWIDTH 10 0
BBX 9 14 0 0
BITMAP
0700
0E00
1800
0000
1C00
7F00
6300
C180
FF80
FF80
C000
6380
7F00
1C00
ENDCHAR

STARTCHAR ecircumflex
ENCODING 234
SWIDTH 640 0
DWIDTH 10 0
BBX 9 14 0 0
BITMAP
0C00
1E00
3300
0000
1C00
7F00
6300
C180
FF80
FF80
C000
6380
7F00
1C00
ENDCHAR

STARTCHAR edieresis
ENCODING 235
SWIDTH 640 0
DWIDTH 10 0
BBX 9 13 0 0
BITMAP
3600
3600
0000
1C00
7F00
6300
C180
FF80
FF80
C000
6380
7F00
1C00
ENDCHAR

STARTCHAR igrave
ENCODING 236
SWIDTH 240 0
DWIDTH 4 0
BBX 5 14 -1 0
BITMAP
E0
70
18
00
30
30
30
30
30
30
30
30
30
30
ENDCHAR

STARTCHAR iacute
ENCODING 237
SWIDTH 240 0
DWIDTH 4 0
BBX 5 14 0 0
BITMAP
38
70
C0
00
60
60
60
60
60
60
60
60
60
60
ENDCHAR

STARTCHAR icircumflex
ENCODING 238
SWIDTH 240 0
DWIDTH 4 0
BBX 6 14 -1 0
BITMAP
30
78
CC
00
30
30
30
30
30
30
30
30
30
30
ENDCHAR

STARTCHAR idieresis
ENCODING 239
SWIDTH 240 0
DWIDTH 4 0
BBX 5 13 0 0
BITMAP
D8
D8
00
60
60
60
60
60
60
60
60
60
60
ENDCHAR

STARTCHAR eth
ENCODING 240
SWIDTH 640 0
DWIDTH 11 0
BBX 10 14 0 0
BITMAP
3980
0F00
3E00
2300
1F80
7F80
61C0
C0C0
C0C0
C0C0
C0C0
6180
7F80
1E00
ENDCHAR

STARTCHAR ntilde
ENCODING 241
SWIDTH 600 0
DWIDTH 10 0
BBX 8 13 1 0
BITMAP
3A
5C
00
DC
FE
E7
C3
C3
C3
C3
C3
C3
C3
ENDCHAR

STARTCHAR ograve
ENCODING 242
SWIDTH 640 0
DWIDTH 11 0
BBX 10 14 0 0
BITMAP
3800
1C00
0600
0000
1E00
7F80
6180
C0C0
C0C0
C0C0
C0C0
6180
7F80
1E00
ENDCHAR

STARTCHAR oacute
ENCODING 243
SWIDTH 640 0
DWIDTH 11 0
BBX 10 14 0 0
BITMAP
0380
0700
0C00
0000
1E00
7F80
6180
C0C0
C0C0
C0C0
C0C0
6180
7F80
1E00
ENDCHAR

STARTCHAR ocircumflex
ENCODING 244
SWIDTH 640 0
DWIDTH 11 0
BBX 10 14 0 0
BITMAP
0C00
1E00
3300
0000
1E00
7F80
6180
C0C0
C0C0
C0C0
C0C0
6180
7F80
1E00
ENDCHAR

STARTCHAR otilde
ENCODING 245
SWIDTH 640 0
DWIDTH 11 0
BBX 10 13 0 0
BITMAP
1D00
2E00
0000
1E00
7F80
6180
C0C0
C0C0
C0C0
C0C0
6180
7F80
1E00
ENDCHAR

STARTCHAR odieresis
ENCODING 246
SWIDTH 640 0
DWIDTH 11 0
BBX 10 13 0 0
BITMAP
1B00
1B00
0000
1E00
7F80
6180
C0C0
C0C0
C0C0
C0C0
6180
7F80
1E00
ENDCHAR

STARTCHAR divide
ENCODING 247
SWIDTH 600 0
DWIDTH 10 0
BBX 8 8 1 1
BITMAP
18
18
00
FF
FF
00
18
18
ENDCHAR

STARTCHAR oslash
ENCODING 248
SWIDTH 660 0
DWIDTH 11 0
BBX 10 12 0 -1
BITMAP
0080
1FC0
7F80
6380
C6C0
CCC0
CCC0
D8C0
7180
7F80
FE00
4000
ENDCHAR

STARTCHAR ugrave
ENCODING 249
SWIDTH 600 0
DWIDTH 10 0
BBX 8 14 1 0
BITMAP
70
38
0C
00
C3
C3
C3
C3
C3
C3
C3
E7
7F
3B
ENDCHAR

STARTCHAR uacute
ENCODING 250
SWIDTH 600 0
DWIDTH 10 0
BBX 8 14 1 0
BITMAP
0E
1C
30
00
C3
C3
C3
C3
C3
C3
C3
E7
7F
3B
ENDCHAR

STARTCHAR ucircumflex
ENCODING 251
SWIDTH 600 0
DWIDTH 10 0
BBX 8 14 1 0
BITMAP
18
3C
66
00
C3
C3
C3
C3
C3
C3
C3
E7
7F
3B
ENDCHAR

STARTCHAR udieresis
ENCODING 252
SWIDTH 600 0
DWIDTH 10 0
BBX 8 13 1 0
BITMAP
36
36
00
C3
C3
C3
C3
C3
C3
C3
E7
7F
3B
ENDCHAR

STARTCHAR yacute
ENCODING 253
SWIDTH 580 0
DWIDTH 10 0
BBX 9 17 0 -3
BITMAP
0700
0E00
1800
0000
C180
C180
6300
6300
3600
3600
1C00
1C00
1800
1800
1800
3000
3000
ENDCHAR

STARTCHAR thorn
ENCODING 254
SWIDTH 660 0
DWIDTH 11 0
BBX 9 16 1 -3
BITMAP
C000
C000
C000
DC00
FF00
E300
C180
C180
C180
C180
E300
FF00
DC00
C000
C000
C000
ENDCHAR

STARTCHAR ydieresis
ENCODING 255
SWIDTH 580 0
DWIDTH 10 0
BBX 9 16 0 -3
BITMAP
3600
3600
0000
C180
C180
6300
6300
3600
3600
1C00
1C00
1800
1800
1800
3000
3000
ENDCHAR
ENDFONT
